<svg viewBox="0 0 100 100" xmlns="http://www.w3.org/2000/svg">
  <rect width="100" height="100" rx="20" fill="#041c1c"/>
  <g fill="#ffe6cb">
    <path d="M 28 22 Q 28 4, 50 4 Q 72 4, 72 22"/>
    <ellipse cx="50" cy="22" rx="34" ry="7"/>
    <path d="M 22 22 C 12 12, 2 14, 4 22 C 5 28, 12 30, 18 28 C 14 30, 8 28, 8 24 C 8 20, 14 18, 22 22 Z"/>
    <path d="M 78 22 C 88 12, 98 14, 96 22 C 95 28, 88 30, 82 28 C 86 30, 92 28, 92 24 C 92 20, 86 18, 78 22 Z"/>
    <ellipse cx="50" cy="50" rx="22" ry="24"/>
    <ellipse cx="41" cy="46" rx="6" ry="7" fill="#041c1c"/>
    <circle cx="42" cy="46" r="3.5" fill="#ffe6cb"/>
    <circle cx="43" cy="44" r="1.3" fill="#041c1c"/>
    <ellipse cx="59" cy="46" rx="6" ry="7" fill="#041c1c"/>
    <circle cx="58" cy="46" r="3.5" fill="#ffe6cb"/>
    <circle cx="59" cy="44" r="1.3" fill="#041c1c"/>
    <path d="M 43 62 Q 50 67, 57 62" fill="none" stroke="#041c1c" stroke-width="1.8" stroke-linecap="round"/>
    <line x1="68" y1="54" x2="72" y2="62" stroke="#ffe6cb" stroke-width="2"/>
    <rect x="68" y="62" width="8" height="10" rx="1.5"/>
    <rect x="70" y="58" width="4" height="6" rx="1"/>
  </g>
</svg>
